<svg width="160" height="160" viewBox="0 0 160 160" fill="none" xmlns="http://www.w3.org/2000/svg">
<rect width="160" height="160" fill="white"/>
<g clip-path="url(#clip0_7664_56400)">
<path d="M61.5347 69.5732C58.3913 69.5732 55.405 69.6125 52.4319 69.5209C52.0258 69.5209 51.4757 68.9252 51.2793 68.4736C50.4148 66.5099 49.629 64.4611 48.8759 62.4254C48.7926 62.06 48.576 61.7388 48.2684 61.5245C47.9608 61.3102 47.5843 61.2184 47.2125 61.2668C42.851 61.3126 38.496 61.2668 34.1149 61.3323C33.803 61.3804 33.5059 61.4977 33.2452 61.6755C32.9846 61.8534 32.7671 62.0872 32.6086 62.3599C31.6983 64.376 30.9845 66.4902 30.0677 68.5259C29.9565 68.7701 29.7926 68.9866 29.5876 69.1598C29.3826 69.333 29.1418 69.4585 28.8824 69.5274C25.955 69.6125 23.0277 69.5732 19.8516 69.5732C21.1089 66.5295 22.2746 63.6822 23.4665 60.8414C26.754 52.9604 30.0524 45.0926 33.3617 37.2378C34.8352 33.7294 36.5314 32.7214 40.5982 32.6559C44.1149 32.5905 46.6362 33.821 48.0507 37.2378C52.3009 47.5276 56.6624 57.7649 60.978 68.0023C61.1614 68.4408 61.3055 68.899 61.5347 69.5339M35.3395 54.119H46.0795L40.978 41.486H40.441L35.3264 54.1583" fill="black"/>
<path d="M101.055 41.82V33.1012H109.09C109.09 33.6576 109.162 34.1878 109.162 34.7114C109.162 44.5517 109.162 54.3919 109.162 64.2322C109.162 67.8126 107.499 69.58 103.923 69.58C99.3392 69.58 94.755 69.6258 90.2233 69.292C85.9927 68.9843 83.3732 66.3399 82.3516 62.3274C81.2057 57.939 81.2057 53.33 82.3516 48.9416C83.5238 44.4317 86.9358 41.9705 91.9129 41.8331C94.8926 41.7545 97.8788 41.8331 101.029 41.8331M101.029 47.9205C100.42 47.8747 99.9941 47.8027 99.575 47.8092C97.887 47.7534 96.1973 47.7862 94.5127 47.9074C91.9784 48.1889 90.4852 49.5176 90.2167 52.0704C89.9744 54.5497 89.9744 57.0466 90.2167 59.5259C90.4394 61.843 91.8474 63.1391 94.146 63.4533C95.8254 63.6257 97.5152 63.6739 99.2017 63.5973C99.4361 63.6164 99.672 63.584 99.8926 63.5024C100.113 63.4207 100.313 63.2918 100.479 63.1246C100.644 62.9574 100.771 62.756 100.85 62.5346C100.929 62.3132 100.959 62.0771 100.937 61.843C100.937 59.8793 101.016 57.9157 101.029 55.952C101.029 53.301 101.029 50.65 101.029 47.9205Z" fill="black"/>
<path d="M127.651 70.0512C125.804 69.8286 123.519 69.6781 121.279 69.2657C116.924 68.4671 114.246 65.862 113.316 61.496C112.563 57.9231 112.503 54.239 113.139 50.6434C113.964 45.7407 116.865 42.841 121.816 42.0032C126.004 41.2698 130.287 41.2698 134.475 42.0032C139.256 42.8476 142.157 45.5771 143.028 50.375C143.802 54.275 143.708 58.2975 142.753 62.1572C141.607 66.5362 138.496 68.9646 133.46 69.5472C131.679 69.7566 129.884 69.8417 127.651 70.0185M135.189 55.5723C135.235 49.1248 132.104 46.4542 125.778 47.7175C124.772 47.8492 123.83 48.2853 123.078 48.9674C122.327 49.6494 121.802 50.5449 121.574 51.5336C120.835 54.2711 120.853 57.1578 121.626 59.8858C121.901 60.9284 122.494 61.8595 123.322 62.5499C125.942 64.3892 128.876 64.3041 131.744 63.2437C134.233 62.3143 134.816 60.0691 135.019 57.6996C135.071 57.045 135.11 56.3905 135.163 55.605" fill="black"/>
<path d="M70.893 69.5081H63.0345C62.9534 69.3493 62.896 69.1795 62.8642 69.0041C62.8642 62.9167 62.7267 56.8227 62.9886 50.7418C63.2047 45.8261 65.6736 43.0834 70.5001 42.2914C73.7745 41.7481 77.1799 41.8136 80.6246 41.6041V47.7897C79.6095 47.7897 78.6599 47.7897 77.6907 47.7897C73.2441 47.8683 71.1419 49.7927 71.0044 54.2372C70.8668 58.6817 70.9323 63.1523 70.893 67.6099V69.5081Z" fill="black"/>
</g>
<path d="M133.256 118.301H123.57V128.152H133.256V118.301Z" fill="black"/>
<path d="M113.029 118.301H103.344V128.152H113.029V118.301Z" fill="#27325B"/>
<path d="M92.8029 118.301H83.1172V128.152H92.8029V118.301Z" fill="#476E6A"/>
<path d="M72.5841 118.301H62.8984V128.152H72.5841V118.301Z" fill="#C72034"/>
<path d="M133.178 81.9203H124.586V114.616H133.178V81.9203Z" fill="black"/>
<path d="M9.14442 114.151V108.489C11.3383 108.489 13.4535 108.489 15.5623 108.489C18.0704 108.489 20.5786 108.489 23.0737 108.345C24.8943 108.234 26.2237 107.304 26.7607 105.138C24.39 105.138 22.1372 105.19 19.8845 105.138C18.1463 105.146 16.4107 105.001 14.6978 104.706C11.037 103.927 8.80388 101.485 7.90014 97.9571C6.82821 93.8348 6.76531 89.5151 7.71678 85.3633C8.89556 80.1268 12.0521 77.5086 17.3959 77.3907C21.5871 77.2729 25.7849 77.2991 29.9827 77.3907C33.2571 77.4497 34.9795 79.2432 34.9925 82.5421C34.9925 89.5525 35.0384 96.5694 34.9925 103.58C34.9467 110.23 31.967 113.581 24.9467 114.118C19.76 114.518 14.5144 114.197 9.15097 114.197M26.7934 99.1418C26.7934 94.3374 26.7934 89.7292 26.7934 85.1277C26.8137 84.8937 26.7822 84.6581 26.7013 84.4375C26.6204 84.217 26.492 84.017 26.3252 83.8515C26.1584 83.686 25.9573 83.5592 25.736 83.48C25.5148 83.4008 25.2789 83.3711 25.0449 83.3931C23.3639 83.3045 21.6786 83.3373 20.0023 83.4913C17.3828 83.7924 16.0207 85.0753 15.7718 87.6477C15.5328 90.0112 15.5328 92.3928 15.7718 94.7563C16.0665 97.5316 17.6513 98.9258 20.4018 99.1157C22.445 99.2531 24.5145 99.1157 26.7803 99.1157" fill="black"/>
<path d="M124.883 113.831V107.998C124.883 99.5677 124.883 91.137 124.883 82.7062C124.883 79.0668 126.5 77.3715 130.122 77.3257C134.051 77.2733 137.98 77.2602 141.91 77.3257C147.502 77.4631 151.032 80.2516 151.798 85.7957C152.296 89.3918 152.296 93.0392 151.798 96.6353C150.986 102.173 147.45 104.935 141.818 105.086C138.93 105.158 136.049 105.086 132.938 105.086V113.831H124.883ZM132.957 99.0441C135.269 99.0441 137.384 99.1423 139.506 99.0441C141.798 98.9001 143.35 97.5255 143.599 95.3C143.921 92.7264 143.958 90.1252 143.711 87.5434C143.403 84.7746 141.877 83.616 139.126 83.3804C137.771 83.2691 136.409 83.3346 135.047 83.3477C134.772 83.318 134.494 83.3499 134.234 83.4412C133.973 83.5325 133.737 83.6808 133.541 83.8753C133.345 84.0697 133.195 84.3055 133.102 84.5653C133.009 84.825 132.975 85.1023 133.003 85.3768C133.003 89.8737 133.003 94.377 133.003 99.0703" fill="black"/>
<path d="M74.0161 76.8673C75.8694 77.0833 78.1615 77.2273 80.3946 77.6462C84.802 78.471 87.5263 81.0958 88.43 85.5534C89.2548 89.4997 89.2101 93.5783 88.2991 97.5057C87.212 102.127 83.931 104.352 79.4778 105.02C75.3924 105.656 71.2297 105.609 67.1595 104.883C62.4313 104.019 59.3795 101.335 58.8098 96.5696C58.3478 93.0947 58.3346 89.5749 58.7705 86.0966C59.5629 80.6441 62.7718 78.0259 68.4038 77.3582C70.1327 77.1553 71.8747 77.0702 74.0423 76.8935M80.709 91.0582C80.709 84.6959 77.6966 82.1104 71.4032 83.2558C69.1569 83.6682 67.6376 84.8988 67.0744 87.1374C66.3536 89.8234 66.3671 92.6535 67.1137 95.3325C67.4023 96.4282 68.0276 97.4058 68.9015 98.1275C71.521 99.9537 74.468 99.8555 77.3233 98.7821C79.8053 97.8395 80.3554 95.5747 80.5649 93.2117C80.6239 92.5572 80.6501 91.9026 80.709 91.0713" fill="black"/>
<path d="M92.5894 77.3908H100.762V80.1727C100.762 84.7546 100.762 89.3366 100.815 93.8792C100.867 97.1979 102.524 98.8801 105.818 99.1157C107.174 99.2074 108.536 99.2008 109.898 99.1747C111.784 99.1419 112.203 98.7296 112.203 96.8444C112.203 91.0254 112.203 85.2063 112.203 79.3872V77.4694H120.31C120.31 77.9537 120.383 78.4774 120.383 79.001C120.383 85.8478 120.383 92.6989 120.383 99.5543C120.383 103.534 118.817 105.125 114.855 105.092C110.121 105.046 105.366 105.216 100.658 104.797C95.6542 104.352 92.799 101.269 92.6352 96.288C92.4191 90.0435 92.5829 83.7924 92.5829 77.3843" fill="black"/>
<path d="M57.2132 77.4302V83.21C55.707 83.2885 54.2532 83.2689 52.819 83.4522C49.7214 83.8449 47.9991 85.4159 47.8157 88.5054C47.5472 93.1659 47.5996 97.846 47.5276 102.52C47.5276 103.318 47.5276 104.123 47.5276 105.007H39.4922V103.299C39.4922 98.4024 39.4922 93.5084 39.4922 88.6167C39.4922 81.1809 42.0593 78.2222 49.4726 77.4891C51.9873 77.2338 54.5544 77.4498 57.2132 77.4498" fill="black"/>
<defs>
<clipPath id="clip0_7664_56400">
<rect width="125.324" height="39.6859" fill="white" transform="translate(19.8516 30.5674)"/>
</clipPath>
</defs>
</svg>
