<svg xmlns="http://www.w3.org/2000/svg" width="20" height="12" viewBox="0 0 20 12"><g fill-rule="evenodd"><path d="M19.277 10.777c.227-2.933-.184-5.865.225-8.753h.447c.014.25.037.498.037.748.004 2.662-.02 5.324.013 7.985.01.822-.26 1.245-1.205 1.243-5.877-.012-11.756-.006-17.634 0-.714 0-1.153-.27-1.156-.977C-.002 8.023 0 5.023 0 2c.678.13.676.55.673.986C.643 5.47.618 7.95.603 10.432c-.002.094.08.19.186.425C2.13 9.58 3.413 8.343 4.726 7.13c.22-.202.427-.773.846-.384.392.365-.157.603-.38.834-1.25 1.277-2.513 2.54-3.702 3.737h17.224C17.224 9.902 15.846 8.6 14.48 7.29c-.212-.202-.714-.395-.403-.724.38-.4.65.073.893.294 1.424 1.284 2.837 2.578 4.306 3.917z"/><path d="M10.013 0c2.778 0 5.557-.002 8.334.003.3 0 .61-.005.894.068.85.215 1.015.73.353 1.278-3.003 2.486-6.043 4.932-9.047 7.418-.47.388-.8.24-1.167-.06C6.47 6.325 3.56 3.947.666 1.555.36 1.303-.213 1.104.08.543.334.063.83.01 1.34.01c2.89.007 5.78.004 8.672.004.002-.005.002-.01.002-.014zM.803.766c3.075 2.505 5.95 4.837 8.81 7.19.356.293.553.19.847-.058.863-.727 1.75-1.428 2.63-2.142 1.986-1.61 3.97-3.22 6.155-4.99H.803z"/></g></svg>