<svg xmlns="http://www.w3.org/2000/svg" width="15" height="15" viewBox="0 0 15 15"><path fill-rule="nonzero" d="M11.17 14.77c-2.123 0-4.916-1.477-7.316-3.854C.646 7.686-.808 3.808.462 1.823c.046-.115.115-.208.207-.277L1.845.37C2.1.137 2.423 0 2.792 0c.416 0 .808.185 1.13.485l2.1 2.1c.6.6.648 1.523.094 2.054l-1.34 1.337c.532.762 1.155 1.5 1.824 2.193.693.692 1.43 1.292 2.193 1.823l1.338-1.34c.255-.253.578-.368.948-.368.415 0 .807.185 1.13.485l2.1 2.1c.277.277.44.646.485 1.015.023.393-.115.785-.37 1.04L13.248 14.1c-.07.07-.162.14-.277.208-.508.3-1.108.462-1.8.462zM2.792.923c-.092 0-.207.023-.276.116l-1.2 1.176s-.024.023-.024.046l-.023.046c-1.062 1.592.37 5.077 3.253 7.94 2.17 2.19 4.777 3.6 6.647 3.6.53 0 .946-.117 1.292-.324l.046-.023.047-.022L13.73 12.3c.117-.115.117-.253.117-.322 0-.162-.092-.3-.208-.44l-2.1-2.122c-.14-.14-.3-.208-.462-.208-.093 0-.208.023-.277.116l-1.36 1.36c-.3.3-.786.324-1.132.07C7.5 10.2 6.716 9.53 6 8.816c-.738-.74-1.384-1.5-1.938-2.308-.254-.37-.23-.854.07-1.13l1.36-1.362c.185-.185.14-.53-.092-.762l-2.1-2.1c-.184-.162-.346-.23-.508-.23z"/></svg>