<svg width="26" height="23" viewBox="0 0 26 23" fill="none" xmlns="http://www.w3.org/2000/svg"><path d="M23.724.15a2.88 2.88 0 0 0-.904.217h-.004c-.276.11-1.589.661-3.584 1.498L12.08 4.877C6.95 7.037 1.905 9.165 1.905 9.165l.06-.023s-.348.114-.711.363c-.225.143-.418.33-.568.55a1.61 1.61 0 0 0-.268 1.075c.087.699.54 1.118.866 1.35.329.234.643.344.643.344h.008l4.73 1.594c.212.68 1.441 4.722 1.737 5.653.174.556.344.904.556 1.17.103.135.223.248.367.34.075.043.155.078.238.102l-.048-.011c.015.003.026.015.037.019.039.01.065.014.114.022.749.227 1.35-.238 1.35-.238l.034-.027 2.793-2.543 4.681 3.59.107.046c.976.429 1.964.19 2.486-.23a2.53 2.53 0 0 0 .73-.965l.034-.087 3.617-18.531c.103-.458.13-.886.016-1.301a1.751 1.751 0 0 0-.757-1.015c-.31-.188-.67-.28-1.033-.261Zm-.098 1.987c-.004.06.008.054-.02.171v.01l-3.583 18.34c-.015.025-.042.083-.113.14-.076.06-.136.098-.45-.027l-5.726-4.39-3.459 3.152.727-4.64 9.354-8.719c.386-.358.257-.434.257-.434.027-.44-.582-.128-.582-.128L8.235 12.919l-.004-.02-5.653-1.903v-.004l-.015-.003a.254.254 0 0 0 .03-.012l.03-.015.03-.01s5.049-2.128 10.18-4.288c2.57-1.082 5.158-2.172 7.148-3.013 1.181-.497 2.363-.991 3.546-1.482.08-.031.042-.031.099-.031v-.001Z" fill="#898989"/></svg>