<svg width="34" height="21" viewBox="0 0 34 21" fill="none" xmlns="http://www.w3.org/2000/svg"><path d="M31.7 2.5c.21-.72 0-1.25-1.03-1.25h-3.4c-.85 0-1.25.46-1.47.96 0 0-1.72 4.2-4.16 6.93-.8.8-1.15 1.05-1.58 1.05-.22 0-.53-.25-.53-.97V2.5c0-.86-.25-1.25-.97-1.25h-5.33c-.54 0-.86.4-.86.78 0 .82 1.22 1 1.34 3.3v5c0 1.1-.2 1.3-.63 1.3-1.15 0-3.94-4.23-5.6-9.06-.33-.94-.65-1.32-1.52-1.32H2.57c-.97 0-1.16.46-1.16.96 0 .9 1.15 5.36 5.35 11.25 2.8 4.02 6.75 6.2 10.35 6.2 2.15 0 2.42-.48 2.42-1.32V15.3c0-.97.2-1.16.88-1.16.5 0 1.37.25 3.38 2.2 2.3 2.3 2.68 3.32 3.97 3.32h3.4c.96 0 1.45-.48 1.17-1.44-.3-.95-1.4-2.33-2.86-3.97-.8-.94-1.98-1.94-2.34-2.44-.5-.65-.36-.94 0-1.51 0 0 4.14-5.82 4.57-7.8Z" stroke="#898989" stroke-width="2"/></svg>