<svg width="28" height="21" viewBox="0 0 28 21" fill="none" xmlns="http://www.w3.org/2000/svg"><path d="M27.65 10.37v-.23l-.02-.81c-.02-.85-.07-1.69-.13-2.48-.1-1.1-.23-2-.4-2.69a4.22 4.22 0 0 0-2.98-2.98c-.86-.23-2.54-.37-4.9-.46C18.1.68 16.9.65 15.69.63h-3.21c-1.2.02-2.4.05-3.53.09-2.36.09-4.04.23-4.9.46a4.22 4.22 0 0 0-2.97 2.98c-.18.69-.31 1.6-.4 2.69-.07.8-.11 1.63-.14 2.48l-.01.81v.63l.01.82c.03.84.07 1.68.13 2.48.1 1.09.23 2 .41 2.68a4.22 4.22 0 0 0 2.98 2.99c.85.23 2.53.37 4.9.46 1.11.04 2.32.07 3.52.08l1.16.01h2.05c1.2-.02 2.4-.05 3.53-.1 2.36-.08 4.04-.23 4.9-.45a4.21 4.21 0 0 0 2.97-2.99c.19-.68.32-1.6.4-2.68.07-.8.12-1.64.14-2.48l.02-.82v-.4Zm-2.18.16v.22l-.02.77c-.02.8-.06 1.61-.13 2.36-.08.98-.2 1.78-.34 2.31-.18.7-.73 1.25-1.43 1.44-.64.17-2.24.3-4.41.39a137.73 137.73 0 0 1-4.62.1h-.87l-1.14-.02a138.1 138.1 0 0 1-3.47-.08 27.87 27.87 0 0 1-4.42-.39 2.04 2.04 0 0 1-1.43-1.44c-.14-.53-.26-1.33-.34-2.3-.07-.76-.1-1.56-.13-2.37l-.01-.77v-.58l.01-.78c.02-.8.06-1.6.13-2.36.08-.97.2-1.77.34-2.3.19-.7.74-1.26 1.43-1.44.64-.17 2.24-.31 4.42-.4a137.52 137.52 0 0 1 4.61-.09h.87l1.14.01c1.19.02 2.37.05 3.48.09 2.17.08 3.78.22 4.4.39.7.18 1.26.73 1.44 1.43.15.54.26 1.34.34 2.31.07.75.1 1.56.13 2.36l.02.78v.36Zm-14.08 3.98 7.02-4.08L11.4 6.4v8.11Z" fill="#898989"/></svg>