<?xml version="1.0" encoding="UTF-8"?>
<!DOCTYPE svg PUBLIC "-//W3C//DTD SVG 1.1//EN" "http://www.w3.org/Graphics/SVG/1.1/DTD/svg11.dtd">
<svg xmlns="http://www.w3.org/2000/svg" xmlns:xlink="http://www.w3.org/1999/xlink">
<defs/>
<symbol id="email" viewBox="0 0 20 12"><g fill-rule="evenodd"><path d="M19.277 10.777c.227-2.933-.184-5.865.225-8.753h.447c.014.25.037.498.037.748.004 2.662-.02 5.324.013 7.985.01.822-.26 1.245-1.205 1.243-5.877-.012-11.756-.006-17.634 0-.714 0-1.153-.27-1.156-.977C-.002 8.023 0 5.023 0 2c.678.13.676.55.673.986C.643 5.47.618 7.95.603 10.432c-.002.094.08.19.186.425C2.13 9.58 3.413 8.343 4.726 7.13c.22-.202.427-.773.846-.384.392.365-.157.603-.38.834-1.25 1.277-2.513 2.54-3.702 3.737h17.224C17.224 9.902 15.846 8.6 14.48 7.29c-.212-.202-.714-.395-.403-.724.38-.4.65.073.893.294 1.424 1.284 2.837 2.578 4.306 3.917z"/><path d="M10.013 0c2.778 0 5.557-.002 8.334.003.3 0 .61-.005.894.068.85.215 1.015.73.353 1.278-3.003 2.486-6.043 4.932-9.047 7.418-.47.388-.8.24-1.167-.06C6.47 6.325 3.56 3.947.666 1.555.36 1.303-.213 1.104.08.543.334.063.83.01 1.34.01c2.89.007 5.78.004 8.672.004.002-.005.002-.01.002-.014zM.803.766c3.075 2.505 5.95 4.837 8.81 7.19.356.293.553.19.847-.058.863-.727 1.75-1.428 2.63-2.142 1.986-1.61 3.97-3.22 6.155-4.99H.803z"/></g></symbol>
<symbol id="phone" viewBox="0 0 15 15"><path fill-rule="nonzero" d="M11.17 14.77c-2.123 0-4.916-1.477-7.316-3.854C.646 7.686-.808 3.808.462 1.823c.046-.115.115-.208.207-.277L1.845.37C2.1.137 2.423 0 2.792 0c.416 0 .808.185 1.13.485l2.1 2.1c.6.6.648 1.523.094 2.054l-1.34 1.337c.532.762 1.155 1.5 1.824 2.193.693.692 1.43 1.292 2.193 1.823l1.338-1.34c.255-.253.578-.368.948-.368.415 0 .807.185 1.13.485l2.1 2.1c.277.277.44.646.485 1.015.023.393-.115.785-.37 1.04L13.248 14.1c-.07.07-.162.14-.277.208-.508.3-1.108.462-1.8.462zM2.792.923c-.092 0-.207.023-.276.116l-1.2 1.176s-.024.023-.024.046l-.023.046c-1.062 1.592.37 5.077 3.253 7.94 2.17 2.19 4.777 3.6 6.647 3.6.53 0 .946-.117 1.292-.324l.046-.023.047-.022L13.73 12.3c.117-.115.117-.253.117-.322 0-.162-.092-.3-.208-.44l-2.1-2.122c-.14-.14-.3-.208-.462-.208-.093 0-.208.023-.277.116l-1.36 1.36c-.3.3-.786.324-1.132.07C7.5 10.2 6.716 9.53 6 8.816c-.738-.74-1.384-1.5-1.938-2.308-.254-.37-.23-.854.07-1.13l1.36-1.362c.185-.185.14-.53-.092-.762l-2.1-2.1c-.184-.162-.346-.23-.508-.23z"/></symbol>
<symbol id="vk" viewBox="0 0 34 21"><path d="M31.7 2.5c.21-.72 0-1.25-1.03-1.25h-3.4c-.85 0-1.25.46-1.47.96 0 0-1.72 4.2-4.16 6.93-.8.8-1.15 1.05-1.58 1.05-.22 0-.53-.25-.53-.97V2.5c0-.86-.25-1.25-.97-1.25h-5.33c-.54 0-.86.4-.86.78 0 .82 1.22 1 1.34 3.3v5c0 1.1-.2 1.3-.63 1.3-1.15 0-3.94-4.23-5.6-9.06-.33-.94-.65-1.32-1.52-1.32H2.57c-.97 0-1.16.46-1.16.96 0 .9 1.15 5.36 5.35 11.25 2.8 4.02 6.75 6.2 10.35 6.2 2.15 0 2.42-.48 2.42-1.32V15.3c0-.97.2-1.16.88-1.16.5 0 1.37.25 3.38 2.2 2.3 2.3 2.68 3.32 3.97 3.32h3.4c.96 0 1.45-.48 1.17-1.44-.3-.95-1.4-2.33-2.86-3.97-.8-.94-1.98-1.94-2.34-2.44-.5-.65-.36-.94 0-1.51 0 0 4.14-5.82 4.57-7.8Z" stroke-width="2"/></symbol>
<symbol id="telegram" viewBox="0 0 26 23"><path d="M23.724.15a2.88 2.88 0 0 0-.904.217h-.004c-.276.11-1.589.661-3.584 1.498L12.08 4.877C6.95 7.037 1.905 9.165 1.905 9.165l.06-.023s-.348.114-.711.363c-.225.143-.418.33-.568.55a1.61 1.61 0 0 0-.268 1.075c.087.699.54 1.118.866 1.35.329.234.643.344.643.344h.008l4.73 1.594c.212.68 1.441 4.722 1.737 5.653.174.556.344.904.556 1.17.103.135.223.248.367.34.075.043.155.078.238.102l-.048-.011c.015.003.026.015.037.019.039.01.065.014.114.022.749.227 1.35-.238 1.35-.238l.034-.027 2.793-2.543 4.681 3.59.107.046c.976.429 1.964.19 2.486-.23a2.53 2.53 0 0 0 .73-.965l.034-.087 3.617-18.531c.103-.458.13-.886.016-1.301a1.751 1.751 0 0 0-.757-1.015c-.31-.188-.67-.28-1.033-.261Zm-.098 1.987c-.004.06.008.054-.02.171v.01l-3.583 18.34c-.015.025-.042.083-.113.14-.076.06-.136.098-.45-.027l-5.726-4.39-3.459 3.152.727-4.64 9.354-8.719c.386-.358.257-.434.257-.434.027-.44-.582-.128-.582-.128L8.235 12.919l-.004-.02-5.653-1.903v-.004l-.015-.003a.254.254 0 0 0 .03-.012l.03-.015.03-.01s5.049-2.128 10.18-4.288c2.57-1.082 5.158-2.172 7.148-3.013 1.181-.497 2.363-.991 3.546-1.482.08-.031.042-.031.099-.031v-.001Z"/></symbol>
<symbol id="youtube" viewBox="0 0 28 21"><path d="M27.65 10.37v-.23l-.02-.81c-.02-.85-.07-1.69-.13-2.48-.1-1.1-.23-2-.4-2.69a4.22 4.22 0 0 0-2.98-2.98c-.86-.23-2.54-.37-4.9-.46C18.1.68 16.9.65 15.69.63h-3.21c-1.2.02-2.4.05-3.53.09-2.36.09-4.04.23-4.9.46a4.22 4.22 0 0 0-2.97 2.98c-.18.69-.31 1.6-.4 2.69-.07.8-.11 1.63-.14 2.48l-.01.81v.63l.01.82c.03.84.07 1.68.13 2.48.1 1.09.23 2 .41 2.68a4.22 4.22 0 0 0 2.98 2.99c.85.23 2.53.37 4.9.46 1.11.04 2.32.07 3.52.08l1.16.01h2.05c1.2-.02 2.4-.05 3.53-.1 2.36-.08 4.04-.23 4.9-.45a4.21 4.21 0 0 0 2.97-2.99c.19-.68.32-1.6.4-2.68.07-.8.12-1.64.14-2.48l.02-.82v-.4Zm-2.18.16v.22l-.02.77c-.02.8-.06 1.61-.13 2.36-.08.98-.2 1.78-.34 2.31-.18.7-.73 1.25-1.43 1.44-.64.17-2.24.3-4.41.39a137.73 137.73 0 0 1-4.62.1h-.87l-1.14-.02a138.1 138.1 0 0 1-3.47-.08 27.87 27.87 0 0 1-4.42-.39 2.04 2.04 0 0 1-1.43-1.44c-.14-.53-.26-1.33-.34-2.3-.07-.76-.1-1.56-.13-2.37l-.01-.77v-.58l.01-.78c.02-.8.06-1.6.13-2.36.08-.97.2-1.77.34-2.3.19-.7.74-1.26 1.43-1.44.64-.17 2.24-.31 4.42-.4a137.52 137.52 0 0 1 4.61-.09h.87l1.14.01c1.19.02 2.37.05 3.48.09 2.17.08 3.78.22 4.4.39.7.18 1.26.73 1.44 1.43.15.54.26 1.34.34 2.31.07.75.1 1.56.13 2.36l.02.78v.36Zm-14.08 3.98 7.02-4.08L11.4 6.4v8.11Z"/></symbol>
</svg>